<?xml version="1.0" encoding="UTF-8"?>
<svg id="_레이어_1" data-name="레이어 1" xmlns="http://www.w3.org/2000/svg" xmlns:xlink="http://www.w3.org/1999/xlink" viewBox="0 0 112.2 112.2">
  <defs>
    <style>
      .cls-1 {
        fill: url(#_무제_그라디언트_33-6);
      }

      .cls-2 {
        fill: url(#_무제_그라디언트_33-13);
      }

      .cls-3 {
        fill: url(#_무제_그라디언트_33-12);
      }

      .cls-4 {
        fill: url(#_무제_그라디언트_32-4);
      }

      .cls-5 {
        fill: url(#_무제_그라디언트_33-10);
      }

      .cls-6 {
        fill: url(#_무제_그라디언트_33);
      }

      .cls-7 {
        fill: url(#_무제_그라디언트_33-2);
      }

      .cls-8 {
        fill: url(#_무제_그라디언트_33-8);
      }

      .cls-9 {
        fill: url(#_무제_그라디언트_33-11);
      }

      .cls-10 {
        fill: url(#_무제_그라디언트_32);
      }

      .cls-11 {
        fill: url(#_무제_그라디언트_33-5);
      }

      .cls-12 {
        fill: url(#_무제_그라디언트_32-9);
      }

      .cls-13 {
        fill: url(#_무제_그라디언트_33-4);
      }

      .cls-14 {
        fill: url(#_무제_그라디언트_33-17);
      }

      .cls-15 {
        fill: url(#_무제_그라디언트_33-7);
      }

      .cls-16 {
        fill: url(#_무제_그라디언트_32-8);
      }

      .cls-17 {
        fill: url(#_무제_그라디언트_33-14);
      }

      .cls-18 {
        fill: url(#_무제_그라디언트_33-3);
      }

      .cls-19 {
        fill: url(#_무제_그라디언트_33-9);
      }

      .cls-20 {
        fill: url(#_무제_그라디언트_32-10);
      }

      .cls-21 {
        fill: url(#_무제_그라디언트_32-3);
      }

      .cls-22 {
        fill: url(#_무제_그라디언트_32-7);
      }

      .cls-23 {
        fill: url(#_무제_그라디언트_32-5);
      }

      .cls-24 {
        fill: url(#_무제_그라디언트_32-6);
      }

      .cls-25 {
        fill: url(#_무제_그라디언트_33-18);
      }

      .cls-26 {
        fill: url(#_무제_그라디언트_33-19);
      }

      .cls-27 {
        fill: url(#_무제_그라디언트_33-15);
      }

      .cls-28 {
        fill: url(#_무제_그라디언트_33-16);
      }

      .cls-29 {
        fill: url(#_무제_그라디언트_32-2);
      }
    </style>
    <linearGradient id="_무제_그라디언트_33" data-name="무제 그라디언트 33" x1="-9.3397" y1="59.2726" x2="78.0626" y2="77.1596" gradientUnits="userSpaceOnUse">
      <stop offset="0" stop-color="#bae2f8"/>
      <stop offset="1" stop-color="#0096df"/>
    </linearGradient>
    <linearGradient id="_무제_그라디언트_33-2" data-name="무제 그라디언트 33" x1="108.1607" y1="4.0942" x2="78.4846" y2="75.2356" xlink:href="#_무제_그라디언트_33"/>
    <linearGradient id="_무제_그라디언트_33-3" data-name="무제 그라디언트 33" x1="110.2456" y1="4.9639" x2="80.5695" y2="76.1053" xlink:href="#_무제_그라디언트_33"/>
    <linearGradient id="_무제_그라디언트_33-4" data-name="무제 그라디언트 33" x1="109.3931" y1="4.6083" x2="79.7169" y2="75.7497" xlink:href="#_무제_그라디언트_33"/>
    <linearGradient id="_무제_그라디언트_33-5" data-name="무제 그라디언트 33" x1="111.6977" y1="5.5697" x2="82.0216" y2="76.711" xlink:href="#_무제_그라디언트_33"/>
    <linearGradient id="_무제_그라디언트_33-6" data-name="무제 그라디언트 33" x1="112.6447" y1="5.9647" x2="82.9685" y2="77.106" xlink:href="#_무제_그라디언트_33"/>
    <linearGradient id="_무제_그라디언트_33-7" data-name="무제 그라디언트 33" x1="105.8289" y1="3.1215" x2="76.1528" y2="74.2629" xlink:href="#_무제_그라디언트_33"/>
    <linearGradient id="_무제_그라디언트_33-8" data-name="무제 그라디언트 33" x1="68.1207" y1="-12.6082" x2="38.4446" y2="58.5332" xlink:href="#_무제_그라디언트_33"/>
    <linearGradient id="_무제_그라디언트_33-9" data-name="무제 그라디언트 33" x1="106.9033" y1="3.5697" x2="77.2272" y2="74.7111" xlink:href="#_무제_그라디언트_33"/>
    <linearGradient id="_무제_그라디언트_33-10" data-name="무제 그라디언트 33" x1="107.5391" y1="3.8349" x2="77.863" y2="74.9763" xlink:href="#_무제_그라디언트_33"/>
    <linearGradient id="_무제_그라디언트_33-11" data-name="무제 그라디언트 33" x1="108.7835" y1="4.354" x2="79.1074" y2="75.4954" xlink:href="#_무제_그라디언트_33"/>
    <linearGradient id="_무제_그라디언트_33-12" data-name="무제 그라디언트 33" x1="106.4774" y1="3.392" x2="76.8013" y2="74.5334" xlink:href="#_무제_그라디언트_33"/>
    <linearGradient id="_무제_그라디언트_33-13" data-name="무제 그라디언트 33" x1="105.1881" y1="2.8542" x2="75.512" y2="73.9956" xlink:href="#_무제_그라디언트_33"/>
    <linearGradient id="_무제_그라디언트_33-14" data-name="무제 그라디언트 33" x1="111.1324" y1="5.3338" x2="81.4563" y2="76.4752" xlink:href="#_무제_그라디언트_33"/>
    <linearGradient id="_무제_그라디언트_33-15" data-name="무제 그라디언트 33" x1="112.2496" y1="5.7999" x2="82.5735" y2="76.9412" xlink:href="#_무제_그라디언트_33"/>
    <linearGradient id="_무제_그라디언트_33-16" data-name="무제 그라디언트 33" x1="109.6503" y1="4.7156" x2="79.9742" y2="75.857" xlink:href="#_무제_그라디언트_33"/>
    <linearGradient id="_무제_그라디언트_33-17" data-name="무제 그라디언트 33" x1="92.7536" y1="-2.3328" x2="63.0775" y2="68.8086" xlink:href="#_무제_그라디언트_33"/>
    <linearGradient id="_무제_그라디언트_33-18" data-name="무제 그라디언트 33" x1="97.5014" y1="-.3522" x2="67.8253" y2="70.7891" xlink:href="#_무제_그라디언트_33"/>
    <linearGradient id="_무제_그라디언트_32" data-name="무제 그라디언트 32" x1="66.9706" y1="135.7326" x2="19.814" y2="58.4933" gradientUnits="userSpaceOnUse">
      <stop offset="0" stop-color="#2967b1" stop-opacity="0"/>
      <stop offset="1" stop-color="#2967b1"/>
    </linearGradient>
    <linearGradient id="_무제_그라디언트_32-2" data-name="무제 그라디언트 32" x1="63.3402" y1="137.949" x2="16.1836" y2="60.7098" xlink:href="#_무제_그라디언트_32"/>
    <linearGradient id="_무제_그라디언트_32-3" data-name="무제 그라디언트 32" x1="68.1678" y1="135.0016" x2="21.0112" y2="57.7624" xlink:href="#_무제_그라디언트_32"/>
    <linearGradient id="_무제_그라디언트_32-4" data-name="무제 그라디언트 32" x1="64.4728" y1="137.2575" x2="17.3162" y2="60.0183" xlink:href="#_무제_그라디언트_32"/>
    <linearGradient id="_무제_그라디언트_33-19" data-name="무제 그라디언트 33" x1="105.9357" y1="111.9433" x2="58.7792" y2="34.7041" xlink:href="#_무제_그라디언트_33"/>
    <linearGradient id="_무제_그라디언트_32-5" data-name="무제 그라디언트 32" x1="61.104" y1="139.3143" x2="13.9474" y2="62.075" xlink:href="#_무제_그라디언트_32"/>
    <linearGradient id="_무제_그라디언트_32-6" data-name="무제 그라디언트 32" x1="67.5594" y1="135.3731" x2="20.4028" y2="58.1339" xlink:href="#_무제_그라디언트_32"/>
    <linearGradient id="_무제_그라디언트_32-7" data-name="무제 그라디언트 32" x1="62.1986" y1="138.646" x2="15.0421" y2="61.4068" xlink:href="#_무제_그라디언트_32"/>
    <linearGradient id="_무제_그라디언트_32-8" data-name="무제 그라디언트 32" x1="68.9242" y1="134.5398" x2="21.7676" y2="57.3006" xlink:href="#_무제_그라디언트_32"/>
    <linearGradient id="_무제_그라디언트_32-9" data-name="무제 그라디언트 32" x1="63.8924" y1="137.6119" x2="16.7359" y2="60.3726" xlink:href="#_무제_그라디언트_32"/>
    <linearGradient id="_무제_그라디언트_32-10" data-name="무제 그라디언트 32" x1="65.6903" y1="136.5142" x2="18.5337" y2="59.275" xlink:href="#_무제_그라디언트_32"/>
  </defs>
  <path class="cls-6" d="m84.6452,48.0738c7.2987,7.8481,2.5035,15.8846-2.7783,18.9101-7.083,3.9868-24.2468,13.6401-28.2847,15.9082-2.6487,1.4872-4.5676,2.9666-7.5342,3.6808h-.0039c-1.5539.3767-3.3982.5415-5.788.3846-.6975-.0451-1.7885-.1754-3.1706-.4308C7.4265,81.0458-5.6498,46.7004,11.0169,22.819c-.0042-.0308-.009-.0618-.0132-.0926C4.2455,31.8443.1843,43.0814.0079,55.2617c0,.0025,0,.0051,0,.0076.0633.2611-.0037.5373-.0076.8066,0,.0072-.0002.0144-.0002.0217,0,1.7894.0824,3.5631.2512,5.3094,2.6722,28.4965,26.6522,50.7931,55.8473,50.7931.2101,0,.4187-.0062.6283-.0085,13.1382-.2044,25.2107-7.6227,31.2404-19.3215,9.1547-17.7621,3.1676-35.1516,1.2928-38.9493-1.3067-2.6449-2.9431-4.4814-4.6147-5.8469Z"/>
  <g>
    <path class="cls-7" d="m100.8731,22.2993c-.1312-.1734-.2639-.3456-.3971-.5174.0239.0312.0477.0624.0718.0935.1088.1409.2178.2818.3253.4239Z"/>
    <path class="cls-18" d="m102.6381,24.7714c.0067.0099.0134.0198.0201.0297-.2808-.4168-.5669-.8299-.8585-1.2387.1964.2751.3906.5517.582.8305.0862.1256.1708.2524.2564.3785Z"/>
    <path class="cls-13" d="m101.7857,23.5423c-.1221-.1709-.2447-.3414-.3686-.5109.081.112.1619.2242.2427.3364.0418.0583.0842.1162.1259.1746Z"/>
    <path class="cls-11" d="m103.469,26.0397c-.1245-.1958-.2494-.3914-.3762-.5855.0658.1016.1322.2029.1979.3047.0601.0932.1188.1873.1783.2808Z"/>
    <path class="cls-1" d="m104.0265,26.9271c-.0495-.0811-.1017-.1605-.1517-.2414.0497.0802.0996.1602.1489.2407.001.0003.0018.0005.0028.0008Z"/>
    <path class="cls-15" d="m99.2606,20.2686c-.2581-.3105-.5194-.6181-.784-.923.0722.0833.1447.1665.2165.2502.191.2225.3798.4472.5674.6727Z"/>
    <path class="cls-8" d="m81.3287,9.1705c6.56,1.3829,12.484,4.8923,16.9209,9.9148-3.0107-3.4254-6.4291-6.4837-10.1857-9.0916-2.6545-1.8481-5.4773-3.4694-8.4407-4.837-.0067-.003-.0139-.0053-.0205-.0083-7.1496-3.3041-15.1116-5.1484-23.5051-5.1484-.5161,0-1.0305.0073-1.5433.0211-.0625.0017-.1245.0052-.187.0071-.4382.0133-.8754.0307-1.3111.0539-.1296.0069-.2586.0166-.3881.0243-.3678.0222-.7351.0463-1.101.0755-.1557.0125-.3106.0273-.4659.041-.3394.03-.6784.0617-1.016.0977-.1663.0177-.3321.0373-.498.0564-.3256.0376-.6506.0774-.9744.1205-.1711.0228-.3417.0468-.5124.0711-.3186.0454-.6364.0937-.9533.1445-.1703.0273-.3407.0549-.5105.0837-.3184.0541-.6356.1115-.9523.171-.1644.0308-.329.0612-.4929.0935-.3257.0642-.65.1325-.9737.2022-.1516.0327-.3034.0641-.4545.098-.3466.0777-.6915.1603-1.0356.2445-.1257.0308-.252.0596-.3773.0912-.4069.1024-.8116.2103-1.215.3216-.0605.0168-.1218.032-.1823.0489-.9422.2636-1.8742.5512-2.7956.8619-.0916.0308-.182.064-.2732.0953-.3602.1236-.7194.2493-1.0761.3799-.1359.0497-.2705.102-.4059.1528-.3106.1165-.6207.2341-.9287.356-.1531.0605-.305.1232-.4576.1851-.2886.1171-.5764.2355-.8626.3572-.1599.068-.3188.1376-.4779.207-.2774.1211-.5539.2438-.829.3693-.1608.0733-.321.1475-.481.2223-.2719.1271-.5424.2565-.8118.3878-.1586.0772-.3169.1547-.4746.2334-.2705.135-.5393.2727-.8072.412-.1523.0791-.3048.1578-.4564.2384-.275.146-.5478.2956-.8201.4461-.141.078-.2826.1548-.423.2339-.2907.164-.5787.332-.8661.501-.1182.0695-.2374.1373-.355.2076-.347.2075-.6909.4195-1.033.6342-.0554.0347-.1116.068-.1668.1029-.4068.2573-.8101.5193-1.2096.7866-.0019.0012-.0036.0026-.0056.0038-.3874.2591-.7709.5237-1.1514.7922-.1018.0719-.2019.146-.3031.2185-.2796.2001-.5583.4012-.834.6063-.1273.0947-.2528.1915-.3793.2872-.2465.1867-.4925.3741-.7359.5647-.1375.1078-.2734.2173-.4099.3262-.2296.1834-.4584.3676-.685.5544-.1403.1156-.2795.2325-.4185.3495-.2201.1849-.4389.3713-.656.5595-.1395.121-.2782.2426-.4165.3649-.2143.1894-.4268.3807-.6381.5734-.1358.124-.2715.248-.4062.3732-.2117.197-.4213.3962-.6301.5965-.1294.1241-.2591.2477-.3873.3731-.2139.2091-.425.421-.6356.6334-.1187.1198-.2384.2387-.356.3595-.2238.23-.4443.4633-.6642.6971-.1005.1069-.2026.2125-.3024.3202-.2678.2892-.5317.5822-.7934.8771-.0475.0535-.0964.1058-.1437.1595-21.0153,23.8578-8.1725,61.7199,23.0958,67.498,1.382.2554,2.473.3857,3.1706.4308,2.3898.1569,4.2341-.0079,5.788-.3846-14.0834,1.0516-13.5223-12.6238-13.5223-12.6238l-.0628-27.39c0-.4003.0157-5.1837.0157-5.5839,0-2.3623-.0589-4.2066.051-5.8625.1726-2.6723.7809-4.8463,2.7783-7.9109,2.7606-4.2391,17.0396-24.1418,46.0247-18.0312Z"/>
    <path class="cls-19" d="m99.9233,21.0772c-.1409-.1761-.2845-.35-.4276-.5243.049.0604.0981.1205.1473.1807.0933.1147.1873.2287.2802.3436Z"/>
    <path class="cls-5" d="m100.4379,21.7321c-.1514-.1948-.3022-.39-.4558-.5829-.0194-.0242-.0393-.048-.0587-.072.1864.2331.3699.4686.5527.7046-.0126-.0166-.0253-.0332-.0381-.0497Z"/>
    <path class="cls-9" d="m101.3244,22.9028c-.1469-.1995-.2956-.3977-.445-.5952l-.0063-.0083c.1833.2425.3646.4866.5441.7321-.0309-.0428-.0614-.086-.0927-.1286Z"/>
    <path class="cls-3" d="m99.3627,20.3896c-.0336-.0406-.0683-.0805-.102-.121.0786.0946.1571.1891.2351.2842-.0443-.0545-.0883-.1091-.1331-.1632Z"/>
    <path class="cls-2" d="m98.346,19.1948c-.0223-.0255-.0443-.0515-.0667-.077-.0098-.011-.02-.0215-.0297-.0325.076.0865.1515.1735.2271.2604-.0437-.0502-.0869-.1008-.1307-.1509Z"/>
    <path class="cls-17" d="m102.9058,25.1664c-.0812-.1227-.165-.2435-.2476-.3654.146.2168.2914.4342.4346.6531-.0623-.096-.124-.1924-.187-.2877Z"/>
    <path class="cls-27" d="m103.7088,26.4173c-.079-.1265-.1597-.2519-.2398-.3777.1364.2146.2723.4296.4058.646-.0555-.0894-.1103-.1792-.166-.2683Z"/>
    <path class="cls-28" d="m101.7877,23.5451c-.0007-.001-.0013-.0018-.002-.0028.0048.0067.0094.0134.0141.02-.004-.0057-.008-.0115-.0121-.0172Z"/>
    <path class="cls-14" d="m47.107,111.4801c-1.1407-.1841-2.2701-.4019-3.3867-.6536,1.1167.2515,2.2458.4698,3.3867.6536Z"/>
    <path class="cls-25" d="m52.3275,112.0725c-1.1137-.0742-2.2186-.1802-3.3136-.3185,1.095.138,2.1998.2447,3.3136.3185Z"/>
  </g>
  <g>
    <path class="cls-10" d="m52.7385,112.097c-.137-.008-.2743-.0154-.411-.0245.1367.0091.274.0164.411.0245Z"/>
    <path class="cls-29" d="m47.2687,111.5053c-.0539-.0085-.108-.0166-.1617-.0252.0537.0086.1078.0167.1617.0252Z"/>
    <path class="cls-21" d="m54.4557,112.1737c-.1536-.0044-.3067-.0107-.4599-.0165.1533.0057.3064.0121.4599.0165Z"/>
    <path class="cls-4" d="m49.0139,111.7539c-.0811-.0103-.1619-.0215-.243-.032.081.0105.1619.0217.243.032Z"/>
    <path class="cls-26" d="m112.1975,55.8826c-.0017-.4483-.0088-.8952-.0209-1.3409-.0054-.1945-.0129-.3885-.0202-.5826-.0131-.3501-.0295-.6993-.0491-1.0476-.0106-.1894-.0203-.3791-.0329-.5679-.0232-.351-.0529-.7002-.082-1.0495-.0125-.1458-.0208-.2927-.0343-.4382-.0122-.131-.0276-.261-.0408-.3915-.0144-.1447-.0318-.2885-.0474-.4328-.0258-.2417-.0504-.4837-.0794-.7245-.024-.1992-.0498-.3977-.0759-.5961-.0442-.3357-.0917-.6702-.1418-1.004-.0277-.1847-.0541-.37-.0836-.5541-.0156-.0975-.0344-.194-.0504-.2914-.063-.3805-.1264-.7611-.1971-1.139-.0306-.1636-.0648-.3259-.0969-.4891-.0667-.3396-.1355-.6784-.2083-1.0158-.0435-.2019-.0883-.4032-.134-.6042-.0726-.3193-.1486-.6374-.2267-.9546-.0444-.1808-.0871-.3621-.1334-.5421-.1174-.4576-.2404-.913-.3689-1.366-.0516-.1816-.1065-.3618-.1599-.5426-.0491-.1663-.1002-.3317-.1508-.4973-.0419-.138-.0824-.2764-.1255-.4138-.0638-.2035-.1285-.4066-.1946-.6091-.0482-.1479-.0992-.2947-.1489-.4418-.0525-.1566-.1043-.3136-.1582-.4696-.0599-.1729-.1175-.3469-.179-.5192-.055-.1543-.1144-.3067-.1709-.4603-.1025-.2798-.2042-.5602-.311-.8379-.0743-.1929-.1516-.384-.2278-.5758-.1087-.2734-.219-.546-.3319-.8172-.0845-.2027-.1692-.4052-.2559-.6068-.1248-.2902-.2532-.5786-.3827-.8662-.0993-.2202-.1985-.4405-.3003-.6592-.0791-.1699-.1616-.3378-.2424-.5067-.0878-.1838-.1739-.3686-.2637-.5513-.0977-.1988-.1982-.396-.2982-.5934-.1249-.2465-.2515-.4921-.3799-.7365-.106-.2015-.2119-.4028-.3202-.6029-.148-.2737-.2997-.5451-.4522-.8159-.1542-.2741-.3107-.5466-.4694-.8178-.1552-.2652-.3111-.5299-.4705-.7922-.1221-.201-.2465-.4005-.371-.5997-.1379-.2205-.2773-.4399-.4181-.6585-.1277-.198-.255-.3961-.3849-.5924-.0879-.1327-.1787-.2632-.2677-.3951-.0856-.1261-.1701-.2529-.2564-.3785-.1953-.2846-.3936-.567-.5941-.8478-.0423-.0593-.0855-.118-.1279-.1773-.1116-.1551-.2223-.311-.3354-.4649-.1469-.1995-.2956-.3977-.445-.5952-.1096-.145-.2207-.2886-.3317-.4323-.0368-.0477-.073-.0957-.1099-.1432-.1514-.1948-.3022-.39-.4558-.5829-.1115-.1398-.2261-.277-.3389-.4157-.0937-.1145-.1861-.2299-.2804-.3439-.2205-.2668-.444-.5311-.6695-.7937-.1152-.1342-.2309-.2679-.3472-.4011-.0223-.0255-.0443-.0515-.0667-.077-4.4401-5.0402-10.3763-8.5613-16.9506-9.9473-28.9851-6.1107-43.2641,13.7921-46.0247,18.0312-1.9974,3.0646-2.6056,5.2386-2.7783,7.9109,2.3544-10.6264,12.7179-10.4576,17.9369-7.4204,6.9966,4.1437,25.0356,14.8368,27.9197,16.5478,1.6599.9849,3.9908,1.9777,6.2629,3.8338,1.6717,1.3656,3.308,3.202,4.6147,5.8469,1.8749,3.7976,7.8619,21.1872-1.2928,38.9493-6.0297,11.6988-18.1023,19.1171-31.2404,19.3215-.2096.0023-.4182.0085-.6283.0085,8.3112,0,16.1986-1.8051,23.2933-5.0503,4.4067-2.013,8.5074-4.5794,12.2156-7.6127.449-.3676.8906-.7439,1.3278-1.125.1364-.1189.2705-.2403.4057-.3605.304-.2701.6056-.5428.9036-.8194.1478-.1373.295-.2752.4415-.4142.2958-.2805.588-.5648.8777-.8515.1273-.1262.256-.2511.3822-.3784.4083-.4121.8121-.8288,1.2076-1.2533.009-.0097.0176-.0196.0266-.0293.3115-.3347.6181-.6739.9214-1.0162.1055-.1191.2088-.2402.3134-.3602.2059-.2364.4108-.4737.6128-.7136.1186-.1409.2357-.283.3529-.4251.1862-.2255.3709-.4525.5535-.6809.1177-.1472.235-.2947.3512-.4431.1835-.2342.3644-.4705.5442-.7077.1074-.1416.2156-.2825.3216-.4252.2078-.2796.4119-.5622.6146-.8457.0725-.1014.147-.2015.2188-.3034.2684-.3808.532-.7654.7911-1.1531.0816-.1221.1606-.2463.2412-.3692.1789-.2723.3568-.5452.5309-.8207.1003-.1586.1984-.3186.2971-.4782.1518-.2454.3023-.4917.4504-.7396.1008-.1688.2006-.3382.2997-.5081.1437-.2466.2853-.4945.4254-.7435.0947-.1681.1896-.3361.2825-.5053.1482-.2698.2928-.5418.4366-.8141.0787-.1491.1591-.2971.2364-.4468.2134-.4132.4226-.8291.626-1.2482.0508-.1046.0987-.2109.1488-.316.1547-.324.3078-.6489.4564-.9762.078-.1718.153-.3451.2293-.5177.1173-.2654.2336-.5312.3468-.7987.0792-.1871.1566-.375.2339-.563.106-.2582.2101-.5173.3122-.7774.0752-.1913.1501-.3827.2232-.5751.1019-.2681.2007-.5376.2986-.8077.0665-.1832.1341-.3659.1987-.5499.1153-.3287.226-.6595.3353-.991.0415-.1258.0855-.2503.1261-.3766.1431-.4444.28-.8917.4122-1.3409.0527-.1791.1017-.3596.1527-.5395.081-.2856.1613-.5715.2379-.8589.0541-.2035.1059-.408.1578-.6124.0681-.2681.1348-.5368.1991-.8064.0502-.2107.0993-.4217.1472-.6333.0612-.271.1198-.5431.177-.8156.0436-.2074.0878-.4145.1291-.6228.0592-.2983.114-.5981.1684-.8981.0332-.1829.0688-.365.1002-.5486.0797-.4656.154-.933.2221-1.4025.0257-.1764.0468-.3542.0709-.531.0422-.3117.084-.6235.1211-.9369.0255-.2151.0475-.4312.0705-.647.0297-.2789.0585-.558.0841-.838.0206-.2252.0394-.4508.0573-.6767.0218-.275.0414-.5506.0592-.8267.0148-.2271.0292-.4542.0412-.6819.015-.2861.0262-.5731.037-.8602.008-.2163.0179-.4323.0236-.6492.0095-.3667.0132-.7347.0157-1.1031.0009-.1268.0046-.2529.0046-.38,0-.0722-.0022-.1439-.0025-.2158Z"/>
    <path class="cls-23" d="m43.7203,110.8266c-.0068-.0015-.0137-.0032-.0204-.0047.0067.0015.0136.0032.0204.0047Z"/>
    <path class="cls-24" d="m53.9958,112.1573c-.4203-.0155-.8394-.0354-1.2573-.0603.4179.0247.837.0448,1.2573.0603Z"/>
    <path class="cls-22" d="m47.107,111.4801c-1.1407-.1841-2.2701-.4019-3.3867-.6536,1.1167.2515,2.2458.4698,3.3867.6536Z"/>
    <path class="cls-16" d="m56.0985,112.2c-.5497,0-1.0969-.0104-1.6427-.0262.5459.0157,1.093.0262,1.6427.0262Z"/>
    <path class="cls-12" d="m48.7709,111.7219c-.5028-.0658-1.0037-.1376-1.5022-.2166.4986.0788.9993.151,1.5022.2166Z"/>
    <path class="cls-20" d="m52.3275,112.0725c-1.1137-.0742-2.2186-.1802-3.3136-.3185,1.095.138,2.1998.2447,3.3136.3185Z"/>
  </g>
</svg>